<?xml version="1.0" encoding="utf-8"?>
<!-- Generator: Adobe Illustrator 24.0.0, SVG Export Plug-In . SVG Version: 6.00 Build 0)  -->
<svg version="1.1" id="Capa_1" xmlns="http://www.w3.org/2000/svg" xmlns:xlink="http://www.w3.org/1999/xlink" x="0px" y="0px"
	 viewBox="0 0 512 512" style="enable-background:new 0 0 512 512;" xml:space="preserve">
<style type="text/css">
	.st0{fill:none;stroke:#FFFFFF;stroke-width:32;stroke-linejoin:round;}
	.st1{fill:#FFFFFF;}
	.st2{fill:none;stroke:#FFFFFF;stroke-width:32;stroke-linecap:round;stroke-linejoin:round;}
</style>
<title>ionicons-v5-q</title>
<path class="st0" d="M96,80h320c26.5,0,48,21.5,48,48v288c0,26.5-21.5,48-48,48H96c-26.5,0-48-21.5-48-48V128
	C48,101.5,69.5,80,96,80z"/>
<path class="st1" d="M397.8,80H114.2C77.7,80,48,110.2,48,147.2V192h8c0-16,24-32,40-32h320c16,0,40,16,40,32h8v-44.8
	C464,110.2,434.3,80,397.8,80z"/>
<line class="st2" x1="128" y1="48" x2="128" y2="80"/>
<line class="st2" x1="384" y1="48" x2="384" y2="80"/>
<path class="st1" d="M124.6,208h70.9c15.8,0,28.6,12.8,28.6,28.6v70.9c0,15.8-12.8,28.6-28.6,28.6h-70.9
	c-15.8,0-28.6-12.8-28.6-28.6v-70.9C96,220.8,108.8,208,124.6,208z"/>
<path class="st0" d="M464,256v-48c-0.1-26.5-21.5-47.9-48-48H96c-26.5,0.1-47.9,21.5-48,48v48"/>
</svg>
